<svg xmlns="http://www.w3.org/2000/svg" xmlns:xlink="http://www.w3.org/1999/xlink" x="0px" y="0px" width="104.223px" height="42.331px" viewBox="0 0 104.223 42.331" xml:space="preserve"><g id="Layer_1">	<g>		<path d="M0,30.385c0-0.45,0.049-1.063,0.147-1.836c0.098-0.773,0.218-1.643,0.359-2.606c0.141-0.963,0.277-1.969,0.412-3.018   c0.133-1.048,0.25-2.089,0.348-3.123c0.098-1.034,0.147-2.008,0.147-2.923c0-0.604-0.024-1.097-0.074-1.477   s-0.124-0.676-0.222-0.887c0.886,0.057,1.614,0.204,2.184,0.443s0.992,0.577,1.266,1.013c0.274,0.437,0.412,0.992,0.412,1.667   c0,0.535-0.06,1.242-0.179,2.121c-0.12,0.879-0.261,1.878-0.422,2.996c-0.162,1.119-0.303,2.321-0.422,3.609   c-0.12,1.287-0.179,2.613-0.179,3.978c0,0.352,0.01,0.686,0.031,1.002c0.021,0.316,0.053,0.615,0.095,0.897   c-0.282,0.014-0.524,0.027-0.728,0.042c-0.204,0.014-0.391,0.021-0.559,0.021c-0.971,0-1.65-0.141-2.037-0.422   C0.193,31.602,0,31.103,0,30.385z M4.094,16.31c0.619-0.338,1.284-0.587,1.994-0.749c0.71-0.162,1.396-0.243,2.058-0.243   c0.914,0,1.706,0.194,2.374,0.581c0.668,0.387,1.178,0.907,1.53,1.562c0.352,0.654,0.527,1.403,0.527,2.247   c0,0.816-0.166,1.586-0.496,2.311c-0.331,0.725-0.795,1.372-1.393,1.941c-0.598,0.57-1.312,1.017-2.142,1.34   c-0.831,0.324-1.745,0.485-2.744,0.485c-0.267,0-0.5-0.007-0.696-0.021c-0.197-0.015-0.38-0.035-0.548-0.063l-0.063-1.098   c0.76,0,1.424-0.116,1.994-0.348c0.57-0.232,1.044-0.549,1.424-0.95c0.38-0.4,0.665-0.868,0.854-1.403   c0.19-0.534,0.285-1.104,0.285-1.709c0-0.563-0.099-1.063-0.295-1.498c-0.197-0.437-0.482-0.781-0.854-1.034   c-0.373-0.253-0.827-0.38-1.361-0.38c-0.31,0-0.647,0.039-1.013,0.116c-0.366,0.077-0.732,0.193-1.098,0.348L4.094,16.31z"></path>		<path d="M17.578,30.089c0,0.521,0.021,0.964,0.063,1.33c0.042,0.366,0.105,0.646,0.19,0.844c-0.858-0.07-1.555-0.253-2.089-0.549   c-0.535-0.295-0.918-0.707-1.15-1.234c-0.232-0.527-0.348-1.192-0.348-1.994c0-0.633,0.056-1.318,0.168-2.058   c0.113-0.738,0.225-1.509,0.338-2.311c0.112-0.802,0.169-1.617,0.169-2.447c0-0.324-0.011-0.644-0.032-0.961   c-0.021-0.316-0.074-0.615-0.158-0.896c0.253-0.042,0.527-0.081,0.823-0.116s0.556-0.053,0.781-0.053   c0.872,0,1.474,0.138,1.804,0.412c0.331,0.273,0.496,0.742,0.496,1.402c0,0.408-0.084,1.042-0.253,1.899   c-0.169,0.858-0.341,1.864-0.517,3.018C17.687,27.529,17.591,28.768,17.578,30.089z M18.358,18.167   c-0.253,0.07-0.535,0.13-0.844,0.179c-0.31,0.05-0.612,0.074-0.907,0.074s-0.587-0.042-0.876-0.127   c-0.288-0.084-0.521-0.235-0.696-0.453c-0.176-0.219-0.264-0.538-0.264-0.961c0-0.365,0.045-0.717,0.137-1.055   c0.091-0.338,0.193-0.689,0.306-1.055c0.267-0.07,0.555-0.127,0.865-0.169c0.309-0.043,0.612-0.063,0.907-0.063   c0.309,0,0.602,0.042,0.875,0.127c0.274,0.084,0.503,0.235,0.686,0.453c0.183,0.219,0.274,0.531,0.274,0.939   c0,0.365-0.05,0.717-0.148,1.055C18.576,17.449,18.471,17.801,18.358,18.167z"></path>		<path d="M22.642,29.245c0.619,0,1.238,0.024,1.857,0.074c0.619,0.049,1.266,0.073,1.941,0.073c0.534,0,1.083-0.038,1.646-0.115   c0.563-0.078,1.125-0.18,1.688-0.307c0.056,0.253,0.098,0.524,0.126,0.813c0.028,0.289,0.042,0.566,0.042,0.834   c0,0.506-0.134,0.896-0.401,1.171c-0.268,0.274-0.774,0.411-1.52,0.411c-0.337,0-0.798-0.039-1.382-0.116s-1.22-0.15-1.91-0.221   s-1.365-0.105-2.026-0.105c-0.605,0-1.171,0.035-1.699,0.105c-0.527,0.07-1.052,0.189-1.572,0.358   c0.126-0.788,0.32-1.396,0.58-1.825s0.605-0.729,1.034-0.897C21.478,29.33,22.009,29.245,22.642,29.245z M20.194,30.49   c1.576-1.632,2.993-3.154,4.252-4.568c1.259-1.414,2.279-2.701,3.06-3.862c0.781-1.16,1.249-2.163,1.403-3.007   c0.605,0.127,1.034,0.334,1.287,0.623c0.253,0.288,0.38,0.679,0.38,1.171c0,0.394-0.166,0.837-0.496,1.329   c-0.331,0.493-0.771,1.034-1.319,1.625c-0.549,0.591-1.161,1.238-1.836,1.941c-0.675,0.704-1.358,1.453-2.047,2.247   c-0.689,0.795-1.344,1.643-1.962,2.543L20.194,30.49z M21.333,19.896c0.76,0.142,1.533,0.243,2.321,0.307   c0.788,0.063,1.583,0.095,2.385,0.095c0.661,0,1.336-0.021,2.026-0.063c0.689-0.042,1.364-0.105,2.025-0.189   c0.07,0.141,0.12,0.32,0.148,0.538c0.028,0.218,0.042,0.404,0.042,0.559l-1.351,1.119c-0.83,0-1.639,0.056-2.427,0.168   c-0.788,0.113-1.495,0.226-2.121,0.338c-0.626,0.113-1.108,0.169-1.445,0.169c-0.647,0-1.104-0.141-1.372-0.422   c-0.268-0.281-0.401-0.76-0.401-1.435C21.165,20.713,21.221,20.319,21.333,19.896z"></path>		<path d="M33.214,29.245c0.619,0,1.238,0.024,1.857,0.074c0.619,0.049,1.266,0.073,1.941,0.073c0.534,0,1.083-0.038,1.646-0.115   c0.563-0.078,1.125-0.18,1.688-0.307c0.056,0.253,0.098,0.524,0.126,0.813c0.028,0.289,0.042,0.566,0.042,0.834   c0,0.506-0.134,0.896-0.401,1.171c-0.268,0.274-0.774,0.411-1.52,0.411c-0.337,0-0.798-0.039-1.382-0.116s-1.22-0.15-1.91-0.221   s-1.365-0.105-2.026-0.105c-0.605,0-1.171,0.035-1.699,0.105c-0.527,0.07-1.052,0.189-1.572,0.358   c0.126-0.788,0.32-1.396,0.58-1.825s0.605-0.729,1.034-0.897C32.049,29.33,32.581,29.245,33.214,29.245z M30.766,30.49   c1.576-1.632,2.993-3.154,4.252-4.568c1.259-1.414,2.279-2.701,3.06-3.862c0.781-1.16,1.249-2.163,1.403-3.007   c0.605,0.127,1.034,0.334,1.287,0.623c0.253,0.288,0.38,0.679,0.38,1.171c0,0.394-0.166,0.837-0.496,1.329   c-0.331,0.493-0.771,1.034-1.319,1.625c-0.549,0.591-1.161,1.238-1.836,1.941c-0.675,0.704-1.358,1.453-2.047,2.247   c-0.689,0.795-1.344,1.643-1.962,2.543L30.766,30.49z M31.905,19.896c0.76,0.142,1.533,0.243,2.321,0.307   c0.788,0.063,1.583,0.095,2.385,0.095c0.661,0,1.336-0.021,2.026-0.063c0.689-0.042,1.364-0.105,2.025-0.189   c0.07,0.141,0.12,0.32,0.148,0.538c0.028,0.218,0.042,0.404,0.042,0.559l-1.351,1.119c-0.83,0-1.639,0.056-2.427,0.168   c-0.788,0.113-1.495,0.226-2.121,0.338c-0.626,0.113-1.108,0.169-1.445,0.169c-0.647,0-1.104-0.141-1.372-0.422   c-0.268-0.281-0.401-0.76-0.401-1.435C31.736,20.713,31.792,20.319,31.905,19.896z"></path>		<path d="M49.188,28.654c-0.268,0.718-0.63,1.34-1.087,1.867c-0.457,0.528-0.971,0.939-1.541,1.235   c-0.57,0.295-1.171,0.442-1.804,0.442c-0.971,0-1.727-0.361-2.269-1.087c-0.542-0.724-0.813-1.727-0.813-3.007   c0-1.055,0.169-2.058,0.506-3.007c0.338-0.949,0.809-1.794,1.414-2.532c0.604-0.738,1.294-1.319,2.068-1.741   c0.773-0.422,1.597-0.633,2.469-0.633c0.38,0,0.764,0.039,1.15,0.116s0.714,0.18,0.981,0.306   c-0.647,0.226-1.263,0.588-1.847,1.087c-0.584,0.5-1.094,1.087-1.53,1.762c-0.436,0.676-0.78,1.403-1.034,2.185   c-0.253,0.78-0.38,1.572-0.38,2.374c0,0.661,0.098,1.188,0.295,1.582c0.197,0.395,0.471,0.591,0.823,0.591   c0.394,0,0.78-0.231,1.16-0.696c0.38-0.464,0.721-1.086,1.023-1.867c0.303-0.78,0.549-1.646,0.739-2.596   c0.189-0.949,0.284-1.909,0.284-2.88c0-0.408-0.01-0.792-0.031-1.15s-0.053-0.665-0.095-0.918c0.253-0.07,0.485-0.116,0.696-0.138   c0.211-0.021,0.478-0.031,0.802-0.031c0.815,0,1.414,0.141,1.794,0.422c0.38,0.282,0.569,0.725,0.569,1.33   c0,0.352-0.05,0.815-0.147,1.393c-0.099,0.577-0.215,1.224-0.349,1.941c-0.134,0.717-0.253,1.474-0.358,2.269   s-0.158,1.579-0.158,2.353c0,0.591,0.049,1.104,0.147,1.54c0.099,0.437,0.268,0.929,0.507,1.478   c-1.351-0.07-2.332-0.391-2.944-0.96c-0.611-0.57-0.918-1.445-0.918-2.627c0-0.127,0-0.211,0-0.254   c0-0.042,0.007-0.084,0.021-0.126L49.188,28.654z"></path>		<path d="M72.632,22.556c0.056,0.563,0.018,1.003-0.116,1.319s-0.313,0.538-0.538,0.664c-0.226,0.127-0.468,0.204-0.729,0.232   c-0.26,0.028-0.488,0.042-0.686,0.042c-0.534,0-1.059-0.007-1.572-0.021c-0.514-0.015-1.037-0.021-1.571-0.021   c-0.858,0-1.734,0.057-2.628,0.169s-1.762,0.358-2.605,0.738c-0.015-0.141-0.025-0.239-0.032-0.295   c-0.007-0.057-0.011-0.155-0.011-0.296c0-0.661,0.123-1.171,0.369-1.529c0.246-0.359,0.573-0.605,0.981-0.739   c0.408-0.133,0.858-0.2,1.351-0.2c0.239,0,0.746,0,1.52,0s1.713-0.007,2.817-0.021C70.286,22.584,71.436,22.57,72.632,22.556z    M67.504,17.513c0,0.45-0.046,1.069-0.138,1.856c-0.091,0.788-0.204,1.667-0.337,2.638c-0.134,0.971-0.264,1.963-0.391,2.976   s-0.235,1.98-0.327,2.901c-0.092,0.922-0.137,1.728-0.137,2.417c0,0.506,0.024,0.96,0.073,1.36   c0.05,0.401,0.123,0.714,0.222,0.939c-1.069-0.211-1.875-0.468-2.416-0.771c-0.542-0.302-0.907-0.668-1.098-1.097   c-0.189-0.43-0.284-0.933-0.284-1.51c0-0.436,0.038-1.016,0.115-1.74s0.176-1.537,0.296-2.438c0.119-0.9,0.235-1.836,0.348-2.807   c0.113-0.971,0.208-1.927,0.285-2.87c0.077-0.942,0.116-1.814,0.116-2.616c0-0.296-0.007-0.591-0.021-0.887   c-0.014-0.295-0.035-0.576-0.063-0.844c0.914,0.028,1.624,0.105,2.131,0.232c0.507,0.126,0.876,0.295,1.108,0.506   c0.231,0.211,0.376,0.465,0.433,0.76C67.476,16.816,67.504,17.146,67.504,17.513z M76.388,17.513c0,0.45-0.046,1.069-0.137,1.856   c-0.092,0.788-0.204,1.667-0.338,2.638s-0.268,1.963-0.401,2.976s-0.246,1.98-0.337,2.901c-0.092,0.922-0.138,1.728-0.138,2.417   c0,1.055,0.099,1.821,0.296,2.3c-1.084-0.211-1.896-0.472-2.438-0.781c-0.542-0.309-0.904-0.679-1.087-1.107   s-0.274-0.925-0.274-1.488c0-0.436,0.042-1.016,0.127-1.74c0.084-0.725,0.187-1.537,0.306-2.438s0.235-1.836,0.349-2.807   c0.112-0.971,0.207-1.927,0.284-2.87c0.077-0.942,0.116-1.814,0.116-2.616c0-0.281-0.007-0.57-0.021-0.865   c-0.015-0.296-0.035-0.584-0.063-0.865c0.914,0.028,1.625,0.105,2.131,0.232c0.507,0.126,0.876,0.299,1.108,0.517   c0.231,0.218,0.376,0.472,0.433,0.76C76.359,16.819,76.388,17.146,76.388,17.513z"></path>		<path d="M89.768,32.39c-0.816-0.085-1.491-0.285-2.026-0.602c-0.534-0.316-0.932-0.735-1.192-1.256   c-0.26-0.521-0.39-1.125-0.39-1.814c0-0.169,0.007-0.334,0.021-0.496c0.014-0.161,0.035-0.348,0.063-0.56l-0.127-0.042   c-0.31,0.929-0.689,1.713-1.139,2.354c-0.451,0.64-0.947,1.129-1.488,1.466c-0.542,0.338-1.122,0.507-1.741,0.507   c-0.591,0-1.072-0.123-1.445-0.369s-0.64-0.604-0.802-1.076s-0.242-1.03-0.242-1.678c0-0.703,0.063-1.438,0.189-2.205   s0.257-1.53,0.391-2.29s0.2-1.47,0.2-2.131c0-0.394-0.018-0.781-0.053-1.161s-0.109-0.767-0.222-1.16   c0.845,0,1.565,0.057,2.163,0.169s1.055,0.327,1.372,0.644c0.316,0.316,0.475,0.799,0.475,1.445c0,0.521-0.07,1.133-0.211,1.836   s-0.285,1.428-0.433,2.174c-0.148,0.745-0.222,1.435-0.222,2.067c0,0.493,0.063,0.873,0.189,1.14   c0.127,0.268,0.31,0.401,0.549,0.401c0.281,0,0.556-0.151,0.823-0.454c0.267-0.302,0.523-0.728,0.771-1.276   c0.245-0.549,0.46-1.171,0.644-1.868c0.183-0.696,0.323-1.441,0.422-2.236c0.098-0.795,0.147-1.601,0.147-2.416   c-0.014-0.324-0.031-0.619-0.053-0.887c-0.021-0.267-0.06-0.506-0.116-0.718c0.296-0.056,0.57-0.098,0.823-0.126   s0.492-0.042,0.718-0.042c0.534,0,0.98,0.06,1.34,0.179c0.358,0.12,0.629,0.31,0.813,0.57c0.183,0.26,0.274,0.615,0.274,1.065   c0,0.31-0.046,0.742-0.138,1.298s-0.193,1.182-0.306,1.878c-0.113,0.696-0.211,1.421-0.296,2.174   c-0.084,0.753-0.126,1.48-0.126,2.184c0,0.591,0.031,1.168,0.095,1.73S89.641,31.897,89.768,32.39z"></path>		<path d="M97.09,23.21c0.394-1.125,0.907-1.979,1.54-2.563c0.634-0.584,1.337-0.876,2.11-0.876c0.549,0,1.094,0.179,1.636,0.538   c0.541,0.358,0.984,0.89,1.329,1.593c0.345,0.704,0.518,1.569,0.518,2.596c0,0.957-0.148,1.886-0.443,2.785   c-0.296,0.901-0.711,1.703-1.245,2.406c-0.535,0.703-1.161,1.256-1.878,1.656c-0.718,0.401-1.513,0.588-2.385,0.56   c-0.281-0.014-0.577-0.046-0.887-0.095c-0.31-0.05-0.604-0.116-0.886-0.201c0.619-0.169,1.167-0.51,1.646-1.023   c0.479-0.513,0.876-1.114,1.192-1.804s0.556-1.41,0.718-2.163c0.161-0.753,0.242-1.445,0.242-2.079   c0-0.436-0.038-0.851-0.115-1.245c-0.078-0.394-0.197-0.714-0.359-0.96s-0.369-0.369-0.622-0.369   c-0.282,0-0.573,0.204-0.876,0.612s-0.58,0.957-0.834,1.646c-0.253,0.689-0.464,1.478-0.633,2.363   c-0.169,0.887-0.253,1.802-0.253,2.744c0,0.548,0.031,1.065,0.095,1.551s0.165,0.967,0.306,1.445   c-0.928-0.057-1.677-0.288-2.247-0.696c-0.569-0.408-0.978-0.946-1.224-1.614s-0.369-1.41-0.369-2.227   c0-0.731,0.07-1.575,0.211-2.532c0.141-0.956,0.306-1.987,0.496-3.092c0.189-1.104,0.354-2.24,0.495-3.407   c0.141-1.168,0.211-2.328,0.211-3.482c0-0.591-0.014-1.185-0.042-1.783c-0.028-0.598-0.077-1.178-0.147-1.74   c0.802,0.07,1.459,0.281,1.973,0.633s0.89,0.819,1.129,1.403s0.352,1.263,0.338,2.036c-0.014,0.479-0.073,1.107-0.179,1.889   c-0.106,0.78-0.226,1.639-0.359,2.574s-0.257,1.903-0.369,2.901L97.09,23.21z"></path>	</g>	<g>		<g>			<path fill-rule="evenodd" clip-rule="evenodd" fill="#DE5A06" d="M100.178,38.468c-12.99-9.354-76.791,0.537-93.187,3.863    c15.876-1.607,80.291-9.973,91.322-1.85c0.557,0.515,1.425,0.481,1.939-0.074C100.768,39.851,100.734,38.982,100.178,38.468z"></path>		</g>	</g>	<g>		<path fill-rule="evenodd" clip-rule="evenodd" fill="#F2B751" d="M83.086,15.729c0,0,6.563-1.452,10.117-9.176   c3.357-7.298,9.972-5.979,9.972-5.979s-8.573-2.591-11.599,3.242C88.676,9.408,87.168,14.096,83.086,15.729z"></path>		<path fill-rule="evenodd" clip-rule="evenodd" fill="#DE5A06" d="M79.226,17.794c0,0,3.684-1.945,4.716-7.594   c1.063-5.827,5.824-6.359,5.824-6.359S83.484,3.883,82.46,8.66C81.545,12.931,81.377,16.147,79.226,17.794z"></path>	</g></g><g id="Layer_1_1_"></g></svg>